<?xml version="1.0" encoding="UTF-8" standalone="no"?>
<!-- Created with Inkscape (http://www.inkscape.org/) -->

<svg
     xmlns:dc="http://purl.org/dc/elements/1.1/"
     xmlns:cc="http://creativecommons.org/ns#"
     xmlns:rdf="http://www.w3.org/1999/02/22-rdf-syntax-ns#"
     xmlns:svg="http://www.w3.org/2000/svg"
     xmlns="http://www.w3.org/2000/svg"
     xmlns:sodipodi="http://sodipodi.sourceforge.net/DTD/sodipodi-0.dtd"
     xmlns:inkscape="http://www.inkscape.org/namespaces/inkscape"
     width="2798.7769"
     height="1668.2214"
     id="svg2"
     version="1.1"
     inkscape:version="0.48.5 r10040"
     sodipodi:docname="fr2003.svg">
    <defs
         id="defs4" />
    <sodipodi:namedview
         id="base"
         pagecolor="#ffffff"
         bordercolor="#666666"
         borderopacity="1.0"
         inkscape:pageopacity="0.0"
         inkscape:pageshadow="2"
         inkscape:zoom="0.36"
         inkscape:cx="1760.2152"
         inkscape:cy="846.68275"
         inkscape:document-units="px"
         inkscape:current-layer="layer1"
         showgrid="false"
         fit-margin-top="0"
         fit-margin-left="0"
         fit-margin-right="0"
         fit-margin-bottom="0" />
    <metadata
         id="metadata7">
        <rdf:RDF>
            <cc:Work
                 rdf:about="">
                <dc:format>image/svg+xml</dc:format>
                <dc:type
                     rdf:resource="http://purl.org/dc/dcmitype/StillImage" />
                <dc:title></dc:title>
            </cc:Work>
        </rdf:RDF>
    </metadata>
    <g
         inkscape:label="Layer 1"
         inkscape:groupmode="layer"
         id="layer1"
         transform="translate(-3883.6946,-322.66809)">
        <rect
             style="color:#000000;fill:#939dac;fill-opacity:1;fill-rule:nonzero;stroke:none;stroke-width:1;marker:none;visibility:visible;display:inline;overflow:visible;enable-background:accumulate"
             id="rect3050"
             width="2798.7769"
             height="1668.2214"
             x="3883.6946"
             y="-1990.8895"
             transform="scale(1,-1)" />
        <path
             style="color:#000000;fill:#b7bec8;fill-opacity:1;fill-rule:nonzero;stroke:none;stroke-width:1;marker:none;visibility:visible;display:inline;overflow:visible;enable-background:accumulate"
             d="M 1912.5,456.59375 C 1884.3899,456.49571 1856.545,459.28792 1828.8438,464.90625 1707.74,489.46837 1589.1209,571.16168 1475.3438,708.375 1363.0832,843.75941 1260.8747,1019.0117 1130.6875,1299.375 1115.1267,1332.8859 1103.0179,1359.4256 1039.0938,1500.375 981.83995,1626.6168 948.0727,1696.2417 917.125,1751.875 860.4896,1853.6861 814.20555,1905.1724 766.90625,1918.9375 759.77045,1921.0142 755.21355,1921.6211 744.90625,1921.9062 737.75625,1922.1041 729.65625,1921.8741 726.90625,1921.375 708.74785,1918.0788 687.1228,1908.5755 667.125,1895.0938 638.5889,1875.8559 621.72965,1860.6295 550.40625,1789.8438 494.65185,1734.5096 473.70675,1714.6393 451.90625,1696.3125 388.17915,1642.7395 332.93675,1614.635 278.90625,1608.2812 263.96245,1606.5239 238.82355,1607.6525 223.84375,1610.7812 158.35605,1624.4592 98.6646,1675.3773 46.6875,1761.875 31.6963,1786.8225 15.2014,1819.1122 2.25,1848.875 L -2,1858.6562 -2,1996.75 2796.7812,1996.75 2796.7812,971.25 2794.6562,970.75 C 2771.3812,965.22728 2745.2823,955.37659 2716.9062,941.375 2666.1807,916.34559 2616.3137,882.05466 2543.9688,822.46875 2533.5541,813.89092 2497.5541,783.27214 2463.9688,754.4375 2358.0003,663.45874 2317.8512,630.90854 2265.5938,593.5 2137.3589,501.70291 2022.7782,456.97837 1912.5,456.59375 z"
             transform="translate(3885.6875,-5.875)"
             id="use3076"
             inkscape:connector-curvature="0" />
        <path
             style="color:#000000;fill:#dbdee3;fill-opacity:1;fill-rule:nonzero;stroke:none;stroke-width:1;marker:none;visibility:visible;display:inline;overflow:visible;enable-background:accumulate"
             d="M 6679.8436,1007.625 C 6673.729,1007.6249 6640.2417,1010.5998 6623.2811,1012.6562 6499.1339,1027.7086 6400.7199,1067.9254 6309.5311,1140.875 6273.7369,1169.5097 6234.7851,1207.6738 6200.0623,1248.125 6144.9893,1312.2836 6089.1075,1394.4526 6032.0623,1495.125 5994.4141,1561.5659 5963.0013,1622.2127 5898.9999,1752.125 5834.4177,1883.2154 5806.7361,1935.3914 5779.8436,1976.625 5775.3597,1983.5 5771.3266,1989.6873 5770.9061,1990.375 5770.7545,1990.6226 5771.1007,1990.8362 5772.1561,1991 L 6682.5311,1991 6682.5311,1007.625 6679.8436,1007.625 z M 5133.2811,1574.625 C 5064.2953,1574.6248 4995.8946,1611.9496 4922.9061,1689.4062 4895.5817,1718.4033 4870.4854,1748.6655 4823.2811,1809.625 4768.8242,1879.9503 4744.4926,1908.1219 4719.9373,1929.25 4664.0649,1977.3243 4619.7449,1980.828 4548.2811,1942.875 4542.5061,1939.808 4528.5561,1932.1151 4517.2811,1925.7812 4464.6895,1896.237 4437.1918,1884.4025 4404.8748,1877.4062 4396.4072,1875.573 4391.4795,1875.231 4374.2811,1875.1874 4351.8367,1875.1306 4345.4671,1876.0156 4327.3123,1881.8124 4285.8141,1895.0629 4243.7312,1930.6972 4206.4061,1984.1562 L 4201.5936,1991 5567.9373,1991 5562.0311,1983.375 C 5546.6407,1963.5191 5530.7883,1940.8413 5479.2811,1865.125 5442.8015,1811.4992 5417.9587,1777.1601 5392.6561,1745.4062 5300.1342,1629.2945 5217.1009,1574.625 5133.2811,1574.625 z"
             id="use3076-7"
             inkscape:connector-curvature="0" />
        <path
             style="color:#000000;fill:#5aa02c;fill-opacity:1;fill-rule:nonzero;stroke:none;stroke-width:1.22302651;marker:none;visibility:visible;display:inline;overflow:visible;enable-background:accumulate"
             d="M 6509.9686,1967.2812 C 6507.0625,1976.226 6504.5828,1983.7856 6503.3749,1987.3125 L 6509.9686,1967.2812 z"
             id="path4072"
             inkscape:connector-curvature="0" />
        <path
             style="color:#000000;fill:#6f7c91;fill-opacity:1;fill-rule:nonzero;stroke:none;stroke-width:1;marker:none;visibility:visible;display:inline;overflow:visible;enable-background:accumulate"
             d="M 0 0 L 0 399.25 C 21.640406 411.94275 44.762465 428.79926 75.09375 453.78125 C 80.80335 458.4838 100.5253 475.25477 118.9375 491.0625 C 177.0318 540.93915 199.0388 558.8043 227.6875 579.3125 C 297.9887 629.63774 360.82425 654.13291 421.28125 654.34375 C 436.69185 654.39747 451.9386 652.89259 467.125 649.8125 C 533.5168 636.34702 598.5623 591.53584 660.9375 516.3125 C 722.4813 442.09167 778.5035 346.01398 849.875 192.3125 C 858.4058 173.94107 865.04905 159.39662 900.09375 82.125 C 915.48484 48.188493 927.74401 21.764808 938.28125 0 L 0 0 z M 2560.5 0 C 2582.6562 38.709732 2598.0028 74.429509 2655.0938 218.59375 C 2701.6608 336.18424 2719.1354 378.39755 2737.3438 417.34375 C 2758.8389 463.32073 2779.1962 500.46552 2798.7812 529.3125 L 2798.7812 0 L 2560.5 0 z "
             transform="translate(3883.6946,322.66809)"
             id="use3076-75" />
    </g>
</svg>
