<?xml version="1.0" encoding="UTF-8" standalone="no"?>
<svg
   width="700pt"
   height="700pt"
   version="1.1"
   viewBox="0 0 700 700"
   id="svg724"
   sodipodi:docname="robot.svg"
   inkscape:version="1.2.2 (b0a8486541, 2022-12-01)"
   xmlns:inkscape="http://www.inkscape.org/namespaces/inkscape"
   xmlns:sodipodi="http://sodipodi.sourceforge.net/DTD/sodipodi-0.dtd"
   xmlns="http://www.w3.org/2000/svg"
   xmlns:svg="http://www.w3.org/2000/svg">
  <defs
     id="defs728" />
  <sodipodi:namedview
     id="namedview726"
     pagecolor="#ffffff"
     bordercolor="#000000"
     borderopacity="0.25"
     inkscape:showpageshadow="2"
     inkscape:pageopacity="0.0"
     inkscape:pagecheckerboard="0"
     inkscape:deskcolor="#d1d1d1"
     inkscape:document-units="pt"
     showgrid="false"
     inkscape:zoom="0.83785714"
     inkscape:cx="439.81245"
     inkscape:cy="466.66667"
     inkscape:window-width="1920"
     inkscape:window-height="1011"
     inkscape:window-x="0"
     inkscape:window-y="0"
     inkscape:window-maximized="1"
     inkscape:current-layer="svg724" />
  <path
     d="m367.5 140.63v-38.852c20.316-7.2422 35-26.492 35-49.277 0-28.945-23.555-52.5-52.5-52.5s-52.5 23.555-52.5 52.5c0 22.785 14.684 42.035 35 49.281v38.867c-136.76 6.5078-227.5 88.848-227.5 209.35v210h490v-210c0-120.5-90.738-202.84-227.5-209.37zm-17.5-105.63c9.6406 0 17.5 7.8594 17.5 17.5s-7.8594 17.5-17.5 17.5-17.5-7.8594-17.5-17.5 7.8594-17.5 17.5-17.5zm-157.5 315c0-28.945 23.555-52.5 52.5-52.5 8.0859 0 15.645 1.9766 22.488 5.2656l-69.738 69.738c-3.2734-6.8594-5.25-14.418-5.25-22.504zm105 0c0 28.945-23.555 52.5-52.5 52.5-8.0859 0-15.645-1.9766-22.488-5.2656l69.738-69.738c3.2734 6.8594 5.25 14.418 5.25 22.504zm105 0c0-28.945 23.555-52.5 52.5-52.5 8.0859 0 15.645 1.9766 22.488 5.2656l-69.738 69.738c-3.2734-6.8594-5.25-14.418-5.25-22.504zm99.734-22.488c3.2891 6.8438 5.2656 14.402 5.2656 22.488 0 28.945-23.555 52.5-52.5 52.5-8.0859 0-15.645-1.9766-22.488-5.2656zm57.766 197.49h-35v-122.5c0-0.15625-0.085938-0.28125-0.085938-0.4375 10.902-14.594 17.586-32.496 17.586-52.062 0-48.246-39.254-87.5-87.5-87.5s-87.5 39.254-87.5 87.5 39.254 87.5 87.5 87.5c12.461 0 24.254-2.6953 35-7.4219v94.922h-280v-94.922c10.746 4.7266 22.539 7.4219 35 7.4219 48.246 0 87.5-39.254 87.5-87.5s-39.254-87.5-87.5-87.5-87.5 39.254-87.5 87.5c0 19.566 6.6836 37.469 17.586 52.062 0 0.15625-0.085938 0.28125-0.085938 0.4375v122.5h-35v-175c0-129.17 113.12-175 210-175s210 45.832 210 175zm-274.87-82.371c-6.7539 6.7539-6.7383 17.57-0.085937 24.43 6.6133 6.8594 17.656 7.0352 24.641 0.50781 0.53906-0.50781 13.734-12.566 40.316-12.566s39.777 12.059 40.129 12.371c3.4102 3.4141 7.8906 5.1289 12.371 5.1289s8.9609-1.7148 12.371-5.1289c6.8438-6.8438 6.8438-17.902 0-24.746-2.3086-2.3242-23.797-22.625-64.871-22.625s-62.562 20.301-64.871 22.629z"
     id="path722"
     style="fill:#ffffff;fill-opacity:1;opacity:0.4" />
</svg>
